<svg width="750" height="471" viewBox="0 0 750 471" fill="none" xmlns="http://www.w3.org/2000/svg">
<path fill-rule="evenodd" clip-rule="evenodd" d="M529 223V331H589V267H657C685.62 266.788 709.931 248.506 719.098 223H529Z" fill="#37A72E"/>
<path fill-rule="evenodd" clip-rule="evenodd" d="M521 134C524.495 178.144 566.258 213 617.263 213C617.43 213 721.591 213 721.591 213C722.36 208.951 722.763 204.773 722.763 200.5C722.763 163.932 693.26 134.271 656.763 134.002L521 134Z" fill="url(#paint0_linear)"/>
<path fill-rule="evenodd" clip-rule="evenodd" d="M432.2 211.95L432.247 211.849L432.253 211.85C432.868 210.747 434.047 210 435.4 210C437.355 210 438.945 211.558 438.999 213.5L439 213.5V330H499V134H439C431.391 134.253 422.795 139.837 419.599 146.69L371.85 249.087C371.733 249.506 371.548 249.896 371.31 250.247L371.294 250.281L371.287 250.279C370.565 251.319 369.362 252 368 252C365.791 252 364 250.209 364 248V134H304V330H364V329.978C371.525 329.585 379.92 324.064 383.07 317.31L432.077 212.214C432.114 212.124 432.155 212.036 432.2 211.95Z" fill="#37A72E"/>
<path fill-rule="evenodd" clip-rule="evenodd" d="M208.153 215.3L173.086 330H129.923L94.8346 215.23C94.4962 213.392 92.8857 212 90.95 212C88.7685 212 87 213.768 87 215.95C87 215.967 87.0001 215.983 87.0003 216L87 330H27V134H78.5H93.8377C104.878 134 116.447 142.568 119.673 153.12L148.874 248.631C150.327 253.383 152.684 253.378 154.135 248.631L183.336 153.12C186.564 142.56 198.13 134 209.171 134L224.505 134H276V330H216V216C216 215.983 216 215.967 216 215.95C216 213.768 214.232 212 212.05 212C210.09 212 208.463 213.428 208.153 215.3Z" fill="#37A72E"/>
<defs>
<linearGradient id="paint0_linear" x1="521" y1="173.5" x2="722.763" y2="173.5" gradientUnits="userSpaceOnUse">
<stop stop-color="#00A0E5"/>
<stop offset="1" stop-color="#0077C3"/>
</linearGradient>
</defs>
</svg>
